<svg width="24" height="24" viewBox="0 0 24 24" fill="none" xmlns="http://www.w3.org/2000/svg">
<g clip-path="url(#clip0_966_5849)">
<path d="M12.001 12C12.001 6.66827 20.0012 6.66827 20.0012 12C20.0012 17.3318 12.001 17.3318 12.001 12ZM4.00075 20.0003C4.00045 19.4749 4.10371 18.9547 4.30461 18.4693C4.50551 17.9839 4.80012 17.5428 5.17159 17.1714C5.54306 16.7999 5.98411 16.5053 6.46951 16.3044C6.95492 16.1035 7.47516 16.0002 8.0005 16.0005H12.0002V20.0003C12.0002 25.332 4 25.332 4 20.0003H4.00075ZM12.001 1.82118e-05V8.00027H16.0007C21.3325 8.00027 21.3325 1.82118e-05 16.0007 1.82118e-05H12.001ZM4.00075 3.99977C4.00045 4.52511 4.10371 5.04535 4.30461 5.53076C4.50551 6.01616 4.80012 6.45721 5.17159 6.82868C5.54306 7.20015 5.98411 7.49476 6.46951 7.69566C6.95492 7.89656 7.47516 7.99981 8.0005 7.99952H12.0002V-0.000731788H8.0005C7.47516 -0.00102756 6.95492 0.102227 6.46951 0.303129C5.98411 0.50403 5.54306 0.798638 5.17159 1.17011C4.80012 1.54158 4.50551 1.98262 4.30461 2.46803C4.10371 2.95344 4.00045 3.47368 4.00075 3.99902V3.99977ZM4.00075 12C4.00045 12.5254 4.10371 13.0456 4.30461 13.531C4.50551 14.0164 4.80012 14.4575 5.17159 14.8289C5.54306 15.2004 5.98411 15.495 6.46951 15.6959C6.95492 15.8968 7.47516 16.0001 8.0005 15.9998H12.0002V7.99952H8.0005C7.47516 7.99922 6.95492 8.10248 6.46951 8.30338C5.98411 8.50428 5.54306 8.79889 5.17159 9.17036C4.80012 9.54183 4.50551 9.98287 4.30461 10.4683C4.10371 10.9537 4.00045 11.4739 4.00075 11.9993V12Z" fill="#F5F5F5"/>
</g>
<defs>
<clipPath id="clip0_966_5849">
<rect width="24" height="24" fill="white"/>
</clipPath>
</defs>
</svg>
